<?xml version="1.0" standalone="no"?>
<!DOCTYPE svg PUBLIC "-//W3C//DTD SVG 20010904//EN"
 "http://www.w3.org/TR/2001/REC-SVG-20010904/DTD/svg10.dtd">
<svg version="1.0" xmlns="http://www.w3.org/2000/svg"
 width="72.000000pt" height="86.000000pt" viewBox="0 0 72.000000 86.000000"
 preserveAspectRatio="xMidYMid meet">

<g transform="translate(0.000000,86.000000) scale(0.100000,-0.100000)"
fill="#000000" stroke="none">
<path d="M190 430 l0 -220 45 0 45 0 0 80 0 80 45 0 44 0 43 -80 43 -80 48 0
c26 0 47 3 47 6 0 3 -19 42 -41 86 l-42 79 33 34 c66 68 46 174 -40 217 -27
14 -61 18 -152 18 l-118 0 0 -220z m234 129 c35 -28 35 -70 0 -98 -20 -16 -41
-21 -85 -21 l-59 0 0 70 0 70 59 0 c44 0 65 -5 85 -21z"/>
</g>
</svg>
